<svg width="350" height="220" viewBox="0 0 350 220" fill="none" xmlns="http://www.w3.org/2000/svg">
<path fill-rule="evenodd" clip-rule="evenodd" d="M347.145 198.753C347.145 208.52 339.257 216.408 329.49 216.408H21.3102C11.5435 216.408 3.65491 208.52 3.65491 198.753V20.772C3.65491 11.0052 11.5435 3.11667 21.3102 3.11667H329.49C339.257 3.11667 347.145 11.0052 347.145 20.772V198.753Z" fill="#00A0AF"/>
<path d="M329.49 219.338H21.3102C10.0409 219.338 0.799988 210.097 0.799988 198.753V20.772C0.799988 9.50266 10.0409 0.26178 21.3102 0.26178H329.49C340.834 0.26178 350 9.50266 350 20.772V198.753C350 210.097 340.834 219.338 329.49 219.338ZM21.3102 6.04672C13.1212 6.04672 6.5098 12.6581 6.5098 20.8472V198.828C6.5098 207.017 13.1212 213.628 21.3102 213.628H329.49C337.679 213.628 344.29 207.017 344.29 198.828V20.772C344.29 12.583 337.679 5.97159 329.49 5.97159H21.3102V6.04672Z" fill="white"/>
<path fill-rule="evenodd" clip-rule="evenodd" d="M325.508 119.341C324.907 115.66 317.169 110.101 304.246 110.702C303.57 110.702 302.894 110.702 302.218 110.626C302.443 110.852 302.594 111.077 302.669 111.227C303.27 112.58 301.617 114.608 300.114 116.111C280.43 133.09 243.392 133.616 194.333 138.725C189.524 139.251 169.69 141.204 151.96 143.608C69.5431 154.953 46.0277 179.294 42.8723 182.675C39.0407 187.333 50.0847 200.932 53.766 200.105C64.6597 177.191 108.235 156.08 152.561 150.295C174.198 147.515 189.675 146.087 212.288 143.909C243.242 140.903 302.218 141.73 322.878 124.375C324.456 122.872 325.808 120.844 325.508 119.341Z" fill="white"/>
<path d="M77.2814 88.4633C76.6804 88.6136 75.1778 88.839 74.8022 87.7872C74.6519 87.3364 74.727 86.51 75.0275 85.5333C75.0275 85.5333 77.6571 78.6966 76.1545 74.5645C75.0275 71.4842 71.3462 71.0334 67.8151 71.9349C61.6546 73.5127 55.1183 79.8986 58.424 88.3882C60.3774 93.5721 64.2841 95.7509 71.5716 99.1317C75.4783 100.935 89.4523 106.72 94.0352 118.665C100.872 136.621 85.2451 154.427 65.1856 159.686C44.6003 165.02 37.9889 156.08 35.8853 150.595C31.3775 138.725 40.2428 125.502 53.4655 121.896C55.4188 121.67 56.1701 121.971 56.3955 122.572C56.696 123.248 55.9448 124.375 55.9448 124.375C50.3101 133.992 50.1598 141.58 52.1132 146.764C54.7427 153.675 60.3022 155.478 65.7115 154.051C78.2581 150.82 83.1415 137.823 79.4602 128.207C76.3047 119.867 64.1338 113.481 56.095 109.049C49.8593 105.518 45.6521 102.888 43.6236 97.4037C41.52 91.9193 40.3179 73.4375 69.6182 65.7744C71.1208 65.3987 86.9731 61.2666 89.5275 68.1785C92.0818 75.2406 86.8228 85.9841 77.2814 88.4633Z" fill="white"/>
<path d="M120.481 117.388C119.579 117.613 118.602 117.914 117.551 118.064C116.424 118.365 116.424 119.116 116.424 119.116C116.123 122.422 116.349 127.005 117.701 130.536C119.504 135.194 122.81 137.072 127.768 135.795C135.206 133.841 137.159 127.53 139.113 119.191C139.113 119.191 139.263 117.764 140.164 117.538C141.667 117.163 142.644 117.764 143.019 118.891C143.32 119.567 143.32 120.468 143.245 121.37C142.193 134.367 132.802 143.157 122.284 145.862C114.545 147.89 106.732 145.561 102.976 135.569C95.5378 116.036 107.483 87.111 128.219 81.7017C132.877 80.4997 141.667 78.9971 145.048 87.8623C149.48 99.8078 135.506 113.481 120.481 117.388ZM129.571 85.5333C127.918 85.9841 118.903 88.5385 116.424 112.805C116.424 112.805 116.424 113.106 116.499 113.331C116.574 113.556 116.799 113.782 117.325 113.782C118.152 113.707 118.753 113.556 119.429 113.406C131.45 110.251 134.53 92.4452 132.652 87.5618C131.9 85.3079 130.473 85.3079 129.571 85.5333Z" fill="white"/>
<path d="M167.587 88.5385C166.835 97.1032 163.905 117.313 164.732 124.15C164.732 124.15 164.807 127.305 165.258 128.507C166.76 132.414 161.877 134.292 157.745 135.344C155.19 136.02 150.908 137.147 150.082 135.043C149.856 134.442 149.856 133.841 149.856 133.841C149.931 124.901 153.988 89.5903 153.988 89.5903C153.988 89.5903 158.646 53.3781 156.918 48.7952C156.618 47.9688 156.317 47.8936 156.092 47.3677C155.866 46.7667 155.866 45.7149 157.369 44.8133C157.444 44.6631 161.952 42.7097 165.934 41.733C168.714 40.9818 171.118 41.0569 171.568 42.3341C172.771 45.3392 167.587 88.5385 167.587 88.5385Z" fill="white"/>
<path d="M194.558 98.0799C193.656 98.3053 192.68 98.6058 191.628 98.756C190.501 99.0566 190.501 99.8078 190.501 99.8078C190.201 103.114 190.426 107.696 191.778 111.227C193.581 115.885 196.887 117.764 201.846 116.487C209.283 114.533 211.237 108.222 213.19 99.883C213.19 99.883 213.34 98.4555 214.242 98.2301C215.744 97.8545 216.721 98.4555 217.097 99.5825C217.397 100.259 217.397 101.16 217.322 102.062C216.27 115.059 206.879 123.849 196.361 126.554C188.623 128.582 180.809 126.253 177.053 116.261C169.615 96.7275 181.561 67.8028 202.296 62.3936C206.954 61.1915 215.744 59.6889 219.125 68.5541C223.558 80.4997 209.584 94.1732 194.558 98.0799ZM203.649 66.2251C201.996 66.6759 192.98 69.2303 190.501 93.497C190.501 93.497 190.426 93.7975 190.576 94.0229C190.651 94.2483 190.877 94.4737 191.403 94.4737C192.229 94.3985 192.83 94.2483 193.506 94.098C205.527 90.9426 208.607 73.137 206.729 68.2536C205.978 65.9997 204.55 65.9998 203.649 66.2251Z" fill="white"/>
<path d="M263.827 53.1527C263.827 53.1527 262.7 65.8495 262.324 69.2303C262.324 69.2303 262.55 70.8831 260.747 71.3339C260.371 71.409 254.436 72.3106 252.107 66.15C251.356 64.1215 250.98 61.4169 251.28 57.7355C251.28 57.7355 251.431 57.0594 251.205 56.4583C250.98 55.8573 250.003 55.8573 249.252 56.0827C240.387 58.4117 232.949 84.5566 238.809 99.7327C240.236 103.489 242.641 105.443 246.697 104.391C249.477 103.639 256.615 100.108 257.892 83.8053C257.892 83.8053 257.892 82.3779 258.793 82.1525C259.169 82.0774 261.273 82.0022 262.024 84.1058C262.174 84.5566 262.324 85.1577 262.324 85.9841C261.122 108.823 245.045 113.556 243.392 113.932C233.024 116.637 226.563 111.979 223.633 104.24C217.397 87.8623 226.939 57.1345 249.853 51.1993C254.511 49.9972 258.793 49.5465 261.348 49.9972C261.348 49.9972 263.151 50.2978 263.752 51.9506C263.827 52.4014 263.827 52.777 263.827 53.1527Z" fill="white"/>
<path d="M291.324 20.6218C291.324 20.6218 289.596 29.5621 288.62 42.0336C288.77 42.4092 288.995 42.7097 289.747 42.4843L296.283 40.7564C297.785 40.3807 298.161 41.0569 298.386 41.5077C298.987 43.1605 297.259 45.4144 296.208 45.7149L288.995 47.5931C288.019 47.8936 287.793 48.7952 287.793 48.7952C286.816 58.3366 282.309 89.5151 286.591 100.86C288.094 104.841 290.873 108.523 296.132 109.575C296.132 109.575 297.936 109.499 298.386 110.777C298.762 112.204 296.583 112.955 295.306 113.256C283.436 116.336 275.096 110.176 272.091 102.212C268.184 91.9944 272.467 67.3521 273.969 52.4014C273.744 51.8003 273.444 51.6501 272.918 51.8003L267.208 53.3029C265.705 53.6786 265.254 52.9273 265.104 52.4765C264.203 49.9972 267.058 48.4947 267.583 48.3444L270.739 47.518C270.739 47.518 274.345 46.6916 275.247 41.733C276.073 36.2486 281.107 20.2461 289.446 18.0674C290.423 17.842 291.099 17.9923 291.324 18.7435C291.625 19.1192 291.625 19.7954 291.324 20.6218Z" fill="white"/>
<path d="M315.591 34.5958C309.28 34.5958 304.171 29.487 304.171 23.1762C304.171 16.8653 309.28 11.7565 315.591 11.7565C321.902 11.7565 327.011 16.8653 327.011 23.1762C327.011 29.487 321.902 34.5958 315.591 34.5958ZM315.591 13.6348C310.332 13.6348 306.125 17.9171 306.125 23.101C306.125 28.2849 310.332 32.6424 315.591 32.6424C320.85 32.6424 325.057 28.3601 325.057 23.1762C325.057 17.9922 320.85 13.6348 315.591 13.6348Z" fill="white"/>
<path d="M321.075 29.2616H318.671L316.718 24.0777H313.562V29.2616H311.309V16.715H316.718C318.22 16.715 319.347 17.0907 320.024 17.7668C320.7 18.443 321.075 19.3445 321.075 20.3964C321.075 21.9741 320.324 23.101 318.821 23.702L321.075 29.2616ZM313.562 22.2746H316.342C317.169 22.2746 317.77 22.1243 318.145 21.7487C318.521 21.373 318.746 20.9223 318.746 20.3212C318.746 19.7953 318.521 19.3445 318.145 18.9689C317.77 18.5933 317.169 18.443 316.492 18.443H313.487V22.2746H313.562Z" fill="white"/>
</svg>
